<svg width="136" height="24" viewBox="0 0 136 24" fill="none" xmlns="http://www.w3.org/2000/svg">
  <title>It recycled?</title>
  <path d="M0.727973 6.08782H4.47197V18.9998H0.727973V6.08782ZM2.59997 4.28782C1.91197 4.28782 1.35197 4.08782 0.919973 3.68782C0.487973 3.28782 0.271973 2.79182 0.271973 2.19982C0.271973 1.60782 0.487973 1.11182 0.919973 0.711817C1.35197 0.311817 1.91197 0.111816 2.59997 0.111816C3.28797 0.111816 3.84797 0.303817 4.27997 0.687818C4.71197 1.07182 4.92797 1.55182 4.92797 2.12782C4.92797 2.75182 4.71197 3.27182 4.27997 3.68782C3.84797 4.08782 3.28797 4.28782 2.59997 4.28782Z" fill="black" fill-opacity="0.9"/>
  <path d="M16.2747 18.3758C15.9067 18.6478 15.4507 18.8558 14.9067 18.9998C14.3787 19.1278 13.8187 19.1918 13.2267 19.1918C11.6907 19.1918 10.4987 18.7998 9.65072 18.0158C8.81872 17.2318 8.40272 16.0798 8.40272 14.5598V9.25582H6.41072V6.37582H8.40272V3.23182H12.1467V6.37582H15.3627V9.25582H12.1467V14.5118C12.1467 15.0558 12.2827 15.4798 12.5547 15.7838C12.8427 16.0718 13.2427 16.2158 13.7547 16.2158C14.3467 16.2158 14.8507 16.0558 15.2667 15.7358L16.2747 18.3758Z" fill="black" fill-opacity="0.9"/>
  <path d="M128.169 13.1678C128.169 12.3358 128.353 11.6478 128.721 11.1038C129.105 10.5598 129.657 9.95982 130.377 9.30382C130.905 8.82382 131.289 8.42382 131.529 8.10382C131.785 7.76782 131.913 7.39182 131.913 6.97582C131.913 6.38382 131.673 5.91982 131.193 5.58382C130.729 5.23182 130.105 5.05582 129.321 5.05582C128.569 5.05582 127.897 5.21582 127.305 5.53582C126.729 5.83982 126.241 6.27182 125.841 6.83182L122.937 5.12782C123.609 4.10382 124.513 3.31182 125.649 2.75182C126.801 2.19182 128.161 1.91182 129.729 1.91182C131.569 1.91182 133.041 2.30382 134.145 3.08782C135.265 3.87182 135.825 4.95982 135.825 6.35182C135.825 7.00782 135.713 7.58382 135.489 8.07982C135.281 8.57582 135.017 8.99982 134.697 9.35182C134.393 9.68782 133.993 10.0798 133.497 10.5278C132.905 11.0558 132.473 11.5038 132.201 11.8718C131.929 12.2238 131.793 12.6558 131.793 13.1678H128.169ZM129.993 19.1918C129.337 19.1918 128.785 18.9838 128.337 18.5678C127.905 18.1358 127.689 17.6158 127.689 17.0078C127.689 16.3998 127.905 15.8958 128.337 15.4958C128.769 15.0798 129.321 14.8718 129.993 14.8718C130.665 14.8718 131.217 15.0798 131.649 15.4958C132.081 15.8958 132.297 16.3998 132.297 17.0078C132.297 17.6158 132.073 18.1358 131.625 18.5678C131.193 18.9838 130.649 19.1918 129.993 19.1918Z" fill="black" fill-opacity="0.9"/>
  <path d="M21.9525 7.7919C22.4005 7.16789 23.0005 6.69589 23.7525 6.3759C24.5205 6.0559 25.4005 5.8959 26.3925 5.8959V9.3519C25.9765 9.3199 25.6965 9.3039 25.5525 9.3039C24.4805 9.3039 23.6405 9.60789 23.0325 10.2159C22.4245 10.8079 22.1205 11.7039 22.1205 12.9039V18.9999H18.3765V6.08789H21.9525V7.7919Z" fill="#4AA371"/>
  <path d="M41.1495 12.5919C41.1495 12.6399 41.1255 12.9759 41.0775 13.5999H31.3095C31.4855 14.3999 31.9015 15.0319 32.5575 15.4959C33.2135 15.9599 34.0295 16.1919 35.0055 16.1919C35.6775 16.1919 36.2695 16.0959 36.7815 15.9039C37.3095 15.6959 37.7975 15.3759 38.2455 14.9439L40.2375 17.1039C39.0215 18.4959 37.2455 19.1919 34.9095 19.1919C33.4535 19.1919 32.1655 18.9119 31.0455 18.3519C29.9255 17.7759 29.0615 16.9839 28.4535 15.9759C27.8455 14.9679 27.5415 13.8239 27.5415 12.5439C27.5415 11.2799 27.8375 10.1439 28.4295 9.1359C29.0375 8.1119 29.8615 7.31989 30.9015 6.75989C31.9575 6.1839 33.1335 5.8959 34.4295 5.8959C35.6935 5.8959 36.8375 6.1679 37.8615 6.71189C38.8855 7.2559 39.6855 8.0399 40.2615 9.06389C40.8535 10.0719 41.1495 11.2479 41.1495 12.5919ZM34.4535 8.7279C33.6055 8.7279 32.8935 8.9679 32.3175 9.4479C31.7415 9.92789 31.3895 10.5839 31.2615 11.4159H37.6215C37.4935 10.5999 37.1415 9.95189 36.5655 9.4719C35.9895 8.97589 35.2855 8.7279 34.4535 8.7279Z" fill="#4AA371"/>
  <path d="M49.8821 19.1919C48.5061 19.1919 47.2661 18.9119 46.1621 18.3519C45.0741 17.7759 44.2181 16.9839 43.5941 15.9759C42.9861 14.9679 42.6821 13.8239 42.6821 12.5439C42.6821 11.2639 42.9861 10.1199 43.5941 9.1119C44.2181 8.1039 45.0741 7.31989 46.1621 6.75989C47.2661 6.1839 48.5061 5.8959 49.8821 5.8959C51.2421 5.8959 52.4261 6.1839 53.4341 6.75989C54.4581 7.31989 55.2021 8.1279 55.6661 9.1839L52.7621 10.7439C52.0901 9.55989 51.1221 8.9679 49.8581 8.9679C48.8821 8.9679 48.0741 9.2879 47.4341 9.92789C46.7941 10.5679 46.4741 11.4399 46.4741 12.5439C46.4741 13.6479 46.7941 14.5199 47.4341 15.1599C48.0741 15.7999 48.8821 16.1199 49.8581 16.1199C51.1381 16.1199 52.1061 15.5279 52.7621 14.3439L55.6661 15.9279C55.2021 16.9519 54.4581 17.7519 53.4341 18.3279C52.4261 18.9039 51.2421 19.1919 49.8821 19.1919Z" fill="#4AA371"/>
  <path d="M70.4503 6.08789L64.6183 19.7919C64.0263 21.2799 63.2903 22.3279 62.4103 22.9359C61.5463 23.5439 60.4983 23.8479 59.2663 23.8479C58.5943 23.8479 57.9303 23.7439 57.2743 23.5359C56.6183 23.3279 56.0823 23.0399 55.6663 22.6719L57.0343 20.0079C57.3223 20.2639 57.6503 20.4639 58.0183 20.6079C58.4023 20.7519 58.7783 20.8239 59.1463 20.8239C59.6583 20.8239 60.0743 20.6959 60.3943 20.4399C60.7143 20.1999 61.0023 19.7919 61.2583 19.2159L61.3063 19.0959L55.7143 6.08789H59.5783L63.2023 14.8479L66.8503 6.08789H70.4503Z" fill="#4AA371"/>
  <path d="M77.8665 19.1919C76.4905 19.1919 75.2505 18.9119 74.1465 18.3519C73.0585 17.7759 72.2025 16.9839 71.5785 15.9759C70.9705 14.9679 70.6665 13.8239 70.6665 12.5439C70.6665 11.2639 70.9705 10.1199 71.5785 9.1119C72.2025 8.1039 73.0585 7.31989 74.1465 6.75989C75.2505 6.1839 76.4905 5.8959 77.8665 5.8959C79.2265 5.8959 80.4105 6.1839 81.4185 6.75989C82.4425 7.31989 83.1865 8.1279 83.6505 9.1839L80.7465 10.7439C80.0745 9.55989 79.1065 8.9679 77.8425 8.9679C76.8665 8.9679 76.0585 9.2879 75.4185 9.92789C74.7785 10.5679 74.4585 11.4399 74.4585 12.5439C74.4585 13.6479 74.7785 14.5199 75.4185 15.1599C76.0585 15.7999 76.8665 16.1199 77.8425 16.1199C79.1225 16.1199 80.0905 15.5279 80.7465 14.3439L83.6505 15.9279C83.1865 16.9519 82.4425 17.7519 81.4185 18.3279C80.4105 18.9039 79.2265 19.1919 77.8665 19.1919Z" fill="#4AA371"/>
  <path d="M85.7124 1.19189H89.4564V18.9999H85.7124V1.19189Z" fill="#4AA371"/>
  <path d="M105.579 12.5919C105.579 12.6399 105.555 12.9759 105.507 13.5999H95.7392C95.9152 14.3999 96.3312 15.0319 96.9872 15.4959C97.6432 15.9599 98.4592 16.1919 99.4352 16.1919C100.107 16.1919 100.699 16.0959 101.211 15.9039C101.739 15.6959 102.227 15.3759 102.675 14.9439L104.667 17.1039C103.451 18.4959 101.675 19.1919 99.3391 19.1919C97.8831 19.1919 96.5952 18.9119 95.4752 18.3519C94.3551 17.7759 93.4911 16.9839 92.8831 15.9759C92.2751 14.9679 91.9712 13.8239 91.9712 12.5439C91.9712 11.2799 92.2672 10.1439 92.8592 9.1359C93.4672 8.1119 94.2912 7.31989 95.3312 6.75989C96.3872 6.1839 97.5632 5.8959 98.8592 5.8959C100.123 5.8959 101.267 6.1679 102.291 6.71189C103.315 7.2559 104.115 8.0399 104.691 9.06389C105.283 10.0719 105.579 11.2479 105.579 12.5919ZM98.8831 8.7279C98.0351 8.7279 97.3232 8.9679 96.7472 9.4479C96.1712 9.92789 95.8192 10.5839 95.6912 11.4159H102.051C101.923 10.5999 101.571 9.95189 100.995 9.4719C100.419 8.97589 99.7151 8.7279 98.8831 8.7279Z" fill="#4AA371"/>
  <path d="M121.224 1.19189V18.9999H117.648V17.5119C116.72 18.6319 115.376 19.1919 113.616 19.1919C112.4 19.1919 111.296 18.9199 110.304 18.3759C109.328 17.8319 108.56 17.0559 108 16.0479C107.44 15.0399 107.16 13.8719 107.16 12.5439C107.16 11.2159 107.44 10.0479 108 9.0399C108.56 8.0319 109.328 7.2559 110.304 6.71189C111.296 6.1679 112.4 5.8959 113.616 5.8959C115.264 5.8959 116.552 6.4159 117.48 7.45589V1.19189H121.224ZM114.264 16.1199C115.208 16.1199 115.992 15.7999 116.616 15.1599C117.24 14.5039 117.552 13.6319 117.552 12.5439C117.552 11.4559 117.24 10.5919 116.616 9.95189C115.992 9.29589 115.208 8.9679 114.264 8.9679C113.304 8.9679 112.512 9.29589 111.888 9.95189C111.264 10.5919 110.952 11.4559 110.952 12.5439C110.952 13.6319 111.264 14.5039 111.888 15.1599C112.512 15.7999 113.304 16.1199 114.264 16.1199Z" fill="#4AA371"/>
</svg>
